<svg width="95" height="100" viewBox="0 0 95 100" fill="none" xmlns="http://www.w3.org/2000/svg">
<path d="M94.7367 26.3692V85.3516C94.7367 86.1622 94.6254 86.9493 94.4183 87.6954C93.391 91.4082 89.9808 94.1407 85.9476 94.1407H9.38513C5.35193 94.1407 1.94177 91.4082 0.914429 87.6954C0.702845 86.9321 0.595749 86.1437 0.59607 85.3516V26.3692C0.59607 24.75 1.90857 23.4395 3.52576 23.4395H91.807C93.4242 23.4393 94.7367 24.7498 94.7367 26.3692Z" fill="#E6ECF5"/>
<path d="M91.8069 23.4385H47.6665V94.1403H85.9476C90.7938 94.1403 94.7366 90.1975 94.7366 85.3512V26.3682C94.7366 24.7502 93.4249 23.4385 91.8069 23.4385Z" fill="#CBD5E1"/>
<path d="M94.4183 87.6955C93.391 91.4084 89.9808 94.1408 85.9476 94.1408H9.38513C5.35193 94.1408 1.94177 91.4084 0.914429 87.6955H94.4183Z" fill="#CCCCCC"/>
<path d="M94.4185 87.6955C93.3911 91.4084 89.981 94.1408 85.9478 94.1408H47.6665V87.6955H94.4185Z" fill="#CCCCCC"/>
<path d="M85.9475 8.98476H9.38538C4.53909 8.98476 0.596313 12.9275 0.596313 17.7738V26.3683H94.7365V17.7738C94.7365 12.9275 90.7938 8.98476 85.9475 8.98476Z" fill="#F26A34"/>
<path d="M85.9476 8.98479H47.6665V26.3684H94.7366V17.7738C94.7366 12.9276 90.7938 8.98479 85.9476 8.98479Z" fill="#F03800"/>
<path d="M28.1342 17.5775C26.5162 17.5775 25.2045 16.2658 25.2045 14.6479V2.92969C25.2045 1.31172 26.5162 0 28.1342 0C29.7521 0 31.0638 1.31172 31.0638 2.92969V14.6479C31.0638 16.2658 29.7523 17.5775 28.1342 17.5775Z" fill="#725D57"/>
<path d="M67.1987 17.5775C65.5808 17.5775 64.269 16.2658 64.269 14.6479V2.92969C64.269 1.31172 65.5808 0 67.1987 0C68.8167 0 70.1284 1.31172 70.1284 2.92969V14.6479C70.1284 16.2658 68.8167 17.5775 67.1987 17.5775Z" fill="#53433F"/>
<path d="M47.6665 17.5775C46.0485 17.5775 44.7368 16.2658 44.7368 14.6479V2.92969C44.7368 1.31172 46.0485 0 47.6665 0C49.2845 0 50.5962 1.31172 50.5962 2.92969V14.6479C50.5962 16.2658 49.2845 17.5775 47.6665 17.5775Z" fill="#725D57"/>
<path d="M47.6665 0V17.5775C49.2845 17.5775 50.5962 16.2658 50.5962 14.6479V2.92969C50.5962 1.31172 49.2845 0 47.6665 0Z" fill="#53433F"/>
<path d="M47.6665 88.2812C46.0485 88.2812 44.7368 86.9695 44.7368 85.3515V71.5828C44.7368 69.9648 46.0485 68.6531 47.6665 68.6531C49.2845 68.6531 50.5962 69.9648 50.5962 71.5828V85.3515C50.5962 86.9695 49.2845 88.2812 47.6665 88.2812Z" fill="#FDBF00"/>
<path d="M47.6665 68.6529L47.6663 88.281C49.2842 88.281 50.5961 86.9693 50.5961 85.3513V71.5826C50.5961 69.9646 49.2844 68.6529 47.6665 68.6529Z" fill="#FF9F00"/>
<path d="M64.2662 96.1435L60.3595 84.4248C60.1651 83.8415 59.792 83.3341 59.2932 82.9746C58.7944 82.6151 58.1951 82.4217 57.5802 82.4216H37.7525C37.1376 82.4216 36.5384 82.6151 36.0395 82.9746C35.5407 83.3341 35.1677 83.8415 34.9732 84.4248L31.0666 96.1435C30.9198 96.5839 30.8798 97.0529 30.9498 97.5118C31.0197 97.9708 31.1977 98.4065 31.4691 98.7832C31.7406 99.1597 32.0976 99.4664 32.5109 99.6779C32.9241 99.8894 33.3817 99.9997 33.8459 99.9998H61.4869C61.9511 99.9997 62.4086 99.8893 62.8218 99.6777C63.235 99.4662 63.592 99.1595 63.8634 98.7829C64.1348 98.4063 64.3128 97.9706 64.3829 97.5117C64.4529 97.0529 64.4129 96.5839 64.2662 96.1435Z" fill="#725D57"/>
<path d="M64.2663 96.1435L60.3596 84.4248C60.1651 83.8415 59.7921 83.3341 59.2933 82.9746C58.7945 82.6151 58.1952 82.4217 57.5803 82.4216H47.6663V99.9998H61.487C61.9512 99.9997 62.4087 99.8893 62.8219 99.6777C63.235 99.4662 63.592 99.1595 63.8635 98.7829C64.1349 98.4063 64.3129 97.9706 64.383 97.5117C64.453 97.0529 64.413 96.5839 64.2663 96.1435Z" fill="#53433F"/>
<path d="M66.8552 61.5241H60.9958C59.3779 61.5241 58.0662 60.2124 58.0662 58.5944C58.0662 56.9764 59.3779 55.6647 60.9958 55.6647H66.8552C68.4707 55.6647 69.7849 54.3507 69.7849 52.735V49.8052C69.7849 48.1897 68.4707 46.8755 66.8552 46.8755H60.9958C59.3779 46.8755 58.0662 45.5638 58.0662 43.9458C58.0662 42.3278 59.3779 41.0161 60.9958 41.0161H66.8552C71.7015 41.0161 75.6443 44.9589 75.6443 49.8052V52.735C75.6443 57.5815 71.7017 61.5241 66.8552 61.5241Z" fill="#FF9F00"/>
<path d="M34.3367 61.5241H28.4773C23.6308 61.5241 19.6882 57.5815 19.6882 52.735V49.8052C19.6882 44.9589 23.6308 41.0161 28.4773 41.0161H34.3367C35.9546 41.0161 37.2664 42.3278 37.2664 43.9458C37.2664 45.5638 35.9546 46.8755 34.3367 46.8755H28.4773C26.8619 46.8755 25.5476 48.1897 25.5476 49.8052V52.735C25.5476 54.3507 26.8619 55.6647 28.4773 55.6647H34.3367C35.9546 55.6647 37.2664 56.9764 37.2664 58.5944C37.2664 60.2126 35.9546 61.5241 34.3367 61.5241Z" fill="#FDBF00"/>
<path d="M60.9958 35.1573H34.3368C32.7188 35.1573 31.4071 36.469 31.4071 38.087V58.2532C31.4071 67.2184 38.701 74.5122 47.6665 74.5122C56.6317 74.5122 63.9255 67.2184 63.9255 58.2532V38.087C63.9255 36.469 62.6139 35.1573 60.9958 35.1573Z" fill="#FFD93B"/>
<path d="M60.9958 35.1573H47.6663V74.5122C56.6315 74.5122 63.9254 67.2184 63.9254 58.2532V38.087C63.9254 36.469 62.6139 35.1573 60.9958 35.1573Z" fill="#FDBF00"/>
<path d="M47.6665 54.6893C49.2845 54.6893 50.5962 53.3777 50.5962 51.7597C50.5962 50.1416 49.2845 48.83 47.6665 48.83C46.0485 48.83 44.7368 50.1416 44.7368 51.7597C44.7368 53.3777 46.0485 54.6893 47.6665 54.6893Z" fill="#F26A34"/>
<path d="M47.6665 48.83L47.6663 54.6893C49.284 54.6893 50.5961 53.3776 50.5961 51.7597C50.5961 50.1417 49.2842 48.83 47.6665 48.83Z" fill="#F03800"/>
</svg>
