<svg width="97" height="100" viewBox="0 0 97 100" fill="none" xmlns="http://www.w3.org/2000/svg">
<path d="M22.6009 92.4982C23.1958 92.8782 23.799 93.245 24.4101 93.5982H72.257C72.868 93.245 73.4711 92.8783 74.066 92.4984L86.047 81.6027C92.3984 73.4818 96.1847 63.2578 96.1847 52.149C96.1847 25.7215 74.7611 4.29785 48.3335 4.29785C21.906 4.29785 0.482178 25.7217 0.482178 52.149C0.482178 63.2578 4.26851 73.4818 10.6201 81.6029L22.6009 92.4982Z" fill="#142766"/>
<path d="M86.0468 81.6025C85.8328 80.5543 85.5823 79.5139 85.2957 78.4832C85.2957 78.4832 87.4427 58.5389 72.3504 57.3051C71.2402 57.2143 70.6498 56.7836 69.3416 56.0459C67.5998 55.0637 65.8418 54.2191 64.0267 53.5154C62.3898 60.6682 55.975 66.0205 48.3334 66.0205C40.6916 66.0205 34.2767 60.6682 32.64 53.5154C30.825 54.2193 29.067 55.0639 27.3252 56.0459C26.017 56.7836 25.4265 57.2143 24.3164 57.3051C9.22399 58.5389 11.3711 78.4832 11.3711 78.4832C11.0843 79.5139 10.8337 80.5543 10.6197 81.6025C13.969 85.8853 18.0201 89.5694 22.6007 92.4982C22.7433 90.7848 22.8265 89.0695 22.8742 87.5609C22.8761 87.5025 22.9007 87.4471 22.9428 87.4065C22.9848 87.3659 23.0411 87.3433 23.0996 87.3436C23.1536 87.3436 23.2059 87.3631 23.2467 87.3986C23.2876 87.434 23.3142 87.483 23.3218 87.5365C23.6228 89.6088 24.0463 91.6236 24.4097 93.598C31.4478 97.6689 39.6181 100 48.3334 100C57.0486 100 65.2189 97.6689 72.2568 93.598C72.6203 91.6236 73.0437 89.6088 73.3447 87.5365C73.3523 87.483 73.379 87.434 73.4198 87.3986C73.4606 87.3631 73.5129 87.3436 73.567 87.3436C73.6254 87.3433 73.6817 87.3659 73.7238 87.4065C73.7659 87.4471 73.7905 87.5025 73.7923 87.5609C73.84 89.0695 73.9232 90.7848 74.0658 92.4982C78.6465 89.5695 82.6975 85.8854 86.0468 81.6025Z" fill="#4FABF7"/>
<path d="M35.7019 59.8859C34.2459 58.0437 33.1806 55.8789 32.6398 53.5154C30.8248 54.2193 29.0668 55.0639 27.325 56.0459C26.0168 56.7836 25.4261 57.2143 24.3162 57.3051C9.2238 58.5389 11.3709 78.4832 11.3709 78.4832C11.0841 79.5139 10.8335 80.5543 10.6195 81.6025C12.3845 83.8577 14.3472 85.9509 16.4842 87.8572C16.7635 85.5211 17.7879 82.7221 18.9254 74.5715C20.2453 65.1168 29.8392 61.3293 35.7019 59.8859Z" fill="#2E8BE6"/>
<path d="M48.3333 62.125C54.2519 62.125 59.198 57.8889 60.3035 52.2899C59.2007 51.9238 58.2925 51.1043 57.8535 50.0227C57.199 48.4109 56.9872 46.4697 56.9355 44.9672C56.0667 45.9793 55.1548 46.8256 54.2835 47.5024C52.581 48.8222 50.4877 49.5379 48.3335 49.5367C46.1793 49.538 44.086 48.8222 42.3835 47.5024C41.5122 46.8258 40.6003 45.9793 39.7314 44.9672C39.6796 46.4695 39.4677 48.4107 38.8132 50.0227C38.374 51.1043 37.466 51.9238 36.3632 52.2899C37.4687 57.8891 42.4148 62.125 48.3333 62.125Z" fill="#FFBA87"/>
<path d="M42.3833 47.5024C41.5121 46.8258 40.6001 45.9793 39.7312 44.9672C39.6794 46.4695 39.4675 48.4107 38.813 50.0227C38.3738 51.1043 37.4658 51.9238 36.363 52.2899C36.8904 54.9606 38.2929 57.3195 40.2566 59.0582C46.2097 59.3992 47.7964 52.4791 48.2009 49.534C46.0904 49.5053 44.0462 48.7938 42.3833 47.5024Z" fill="#FFA270"/>
<path d="M48.3333 66.2641C56.0771 66.2641 62.5804 60.8496 64.2558 53.6078C63.0373 53.126 61.7947 52.7047 60.5126 52.3537C60.3628 52.3127 60.2155 52.2632 60.0712 52.2055C59.0023 57.7111 54.1468 61.8816 48.3333 61.8816C42.5199 61.8816 37.6642 57.7111 36.5955 52.2053C36.4519 52.2627 36.3046 52.3123 36.1541 52.3535C34.8718 52.7047 33.6294 53.1258 32.4109 53.6076C34.0863 60.8496 40.5894 66.2641 48.3333 66.2641Z" fill="#73C3F9"/>
<path d="M40.3339 58.8023C38.4443 57.0975 37.099 54.8 36.5953 52.2053C36.4511 52.263 36.3037 52.3125 36.1539 52.3535C34.8718 52.7047 33.6293 53.1258 32.4107 53.6076C32.9539 55.9555 34.0072 58.1094 35.4429 59.9508C38.2394 59.2422 40.2566 59.058 40.2566 59.058L40.3339 58.8023Z" fill="#4FABF7"/>
<path d="M49.615 78.2557H47.0519C46.8805 78.2557 46.7107 78.2894 46.5523 78.355C46.394 78.4207 46.25 78.5168 46.1288 78.638C46.0076 78.7593 45.9114 78.9032 45.8458 79.0616C45.7802 79.2199 45.7465 79.3897 45.7465 79.5611V88.2006C45.7465 88.5468 45.884 88.8789 46.1288 89.1237C46.3736 89.3685 46.7057 89.5061 47.0519 89.5061H49.615C49.9612 89.5061 50.2933 89.3685 50.5381 89.1237C50.7829 88.8789 50.9205 88.5468 50.9205 88.2006V79.5611C50.9204 79.2149 50.7829 78.8829 50.5381 78.6381C50.2932 78.3933 49.9612 78.2557 49.615 78.2557Z" fill="#FFDD40"/>
<path d="M48.3334 88.2004V79.5609C48.3334 79.2168 48.4694 78.8867 48.7116 78.6423C48.9539 78.3979 49.2828 78.2591 49.6269 78.256C49.6228 78.256 49.6191 78.2555 49.615 78.2555H47.0517C46.7055 78.2555 46.3735 78.393 46.1286 78.6378C45.8838 78.8826 45.7463 79.2147 45.7463 79.5609V88.2004C45.7463 88.5466 45.8838 88.8787 46.1286 89.1235C46.3735 89.3683 46.7055 89.5059 47.0517 89.5059H49.615C49.6191 89.5059 49.6228 89.5053 49.6269 89.5053C49.2828 89.5022 48.9539 89.3634 48.7116 89.119C48.4694 88.8747 48.3334 88.5445 48.3334 88.2004Z" fill="#FFB332"/>
<path d="M66.7304 73.0518H58.2211C57.9481 73.0518 57.6863 73.1602 57.4932 73.3532C57.3002 73.5463 57.1918 73.8081 57.1918 74.0811V78.9906C57.1918 79.2637 57.3002 79.5254 57.4931 79.7184L61.1437 83.3689C61.497 83.7221 61.976 83.9206 62.4756 83.9206C62.9751 83.9206 63.4542 83.7221 63.8074 83.3689L67.458 79.7184C67.651 79.5253 67.7594 79.2636 67.7593 78.9906V74.0811C67.7595 73.9459 67.7329 73.812 67.6812 73.6871C67.6296 73.5622 67.5538 73.4487 67.4582 73.3531C67.3627 73.2575 67.2492 73.1817 67.1243 73.13C66.9995 73.0783 66.8656 73.0517 66.7304 73.0518Z" fill="#2E8BE6"/>
<path d="M62.7773 79.2029C62.5843 79.0099 62.4758 78.7482 62.4758 78.4752V73.5656C62.4758 73.3775 62.5299 73.2035 62.6181 73.0518H58.2211C57.9481 73.0518 57.6863 73.1602 57.4932 73.3532C57.3002 73.5463 57.1918 73.8081 57.1918 74.0811V78.9906C57.1918 79.2637 57.3002 79.5254 57.4931 79.7184L61.1437 83.3689C61.497 83.7221 61.976 83.9206 62.4756 83.9206C62.9751 83.9206 63.4542 83.7221 63.8074 83.3689L65.3752 81.8012L62.7773 79.2029Z" fill="#1D78DB"/>
<path d="M48.3333 77.1459C47.2507 77.1459 46.2908 76.5379 45.8281 75.559L35.0183 52.6906C34.95 52.5461 34.9108 52.3895 34.9029 52.2299C34.8951 52.0702 34.9189 51.9105 34.9728 51.76C35.0267 51.6095 35.1097 51.4711 35.2171 51.3527C35.3245 51.2343 35.4542 51.1382 35.5988 51.0699C35.7433 51.0016 35.8999 50.9624 36.0596 50.9545C36.2192 50.9467 36.3789 50.9704 36.5294 51.0243C36.6799 51.0782 36.8184 51.1612 36.9368 51.2686C37.0552 51.376 37.1514 51.5057 37.2197 51.6502L48.0294 74.5186C48.1046 74.6777 48.2363 74.7111 48.3335 74.7111C48.4308 74.7111 48.5624 74.6777 48.6376 74.5186L59.4472 51.6502C59.5852 51.3583 59.8335 51.1331 60.1374 51.0243C60.4414 50.9154 60.7762 50.9318 61.0681 51.0697C61.36 51.2077 61.5852 51.456 61.694 51.76C61.8029 52.0639 61.7865 52.3987 61.6486 52.6906L50.839 75.559C50.3759 76.5379 49.416 77.1459 48.3333 77.1459Z" fill="#BEC8F7"/>
<path d="M48.3333 79.5252C48.0105 79.5252 47.7008 79.3969 47.4725 79.1686C47.2442 78.9403 47.116 78.6307 47.116 78.3078V74.8857C47.116 74.5629 47.2442 74.2532 47.4725 74.0249C47.7008 73.7966 48.0105 73.6684 48.3333 73.6684C48.6562 73.6684 48.9659 73.7966 49.1942 74.0249C49.4225 74.2532 49.5507 74.5629 49.5507 74.8857V78.3078C49.5507 78.6307 49.4225 78.9403 49.1942 79.1686C48.9659 79.3969 48.6562 79.5252 48.3333 79.5252Z" fill="#E9EFFF"/>
<path d="M49.1297 83.4051H47.5373C47.2144 83.4051 46.9048 83.2768 46.6764 83.0485C46.4481 82.8202 46.3199 82.5106 46.3199 82.1877C46.3199 81.8648 46.4481 81.5552 46.6764 81.3269C46.9048 81.0986 47.2144 80.9703 47.5373 80.9703H49.1297C49.4525 80.9703 49.7622 81.0986 49.9905 81.3269C50.2188 81.5552 50.347 81.8648 50.347 82.1877C50.347 82.5106 50.2188 82.8202 49.9905 83.0485C49.7622 83.2768 49.4525 83.4051 49.1297 83.4051Z" fill="#FF9100"/>
<path d="M35.2773 74.5715H31.3357C31.0129 74.5715 30.7032 74.4432 30.4749 74.2149C30.2466 73.9866 30.1183 73.677 30.1183 73.3541C30.1183 73.0312 30.2466 72.7216 30.4749 72.4933C30.7032 72.265 31.0129 72.1367 31.3357 72.1367H35.2773C35.6002 72.1367 35.9098 72.265 36.1382 72.4933C36.3665 72.7216 36.4947 73.0312 36.4947 73.3541C36.4947 73.677 36.3665 73.9866 36.1382 74.2149C35.9098 74.4432 35.6002 74.5715 35.2773 74.5715Z" fill="#73C3F9"/>
<path d="M64.3961 25.9656C64.2002 25.7861 63.9472 25.6871 63.6736 25.644C63.5861 26.6207 63.4537 27.4947 63.2761 28.2168C63.0724 29.0457 62.4033 29.5799 61.6545 29.7L61.1439 33.4184C61.1439 33.8199 61.1312 34.2137 61.108 34.6008C62.7755 35.1037 63.6039 33.6066 63.7435 32.5793C63.8035 32.137 63.902 31.7009 64.038 31.2758C64.4816 29.8902 66.0818 27.5106 64.3961 25.9656Z" fill="#FFBA87"/>
<path d="M35.0123 29.6998C34.2638 29.5803 33.5945 29.0475 33.3904 28.2166C33.172 27.3285 33.0478 26.466 32.9781 25.6465C32.7103 25.6912 32.4629 25.7895 32.2707 25.9656C30.5847 27.5105 32.1851 29.8902 32.6287 31.2756C32.7648 31.701 32.8631 32.1369 32.9232 32.5791C33.0629 33.6064 33.8912 35.1037 35.5588 34.6006C35.535 34.2069 35.523 33.8126 35.5228 33.4182L35.0123 29.6998Z" fill="#FFA270"/>
<path d="M60.0521 29.2639C55.1312 25.2125 49.2013 25.0717 48.4252 25.0717C44.5011 25.0717 39.9345 26.5303 36.6144 29.2639C36.0347 29.741 35.3039 29.8311 34.6781 29.6184L35.2006 33.418C35.2006 41.6441 40.1777 46.3971 42.3174 48.0586C45.8338 50.7889 50.8076 50.8088 54.349 48.0586C56.489 46.3973 61.466 41.6443 61.465 33.4326L61.9888 29.618C61.3636 29.8313 60.633 29.742 60.0521 29.2639Z" fill="#FFD19E"/>
<path d="M50.4146 47.5139C48.275 45.4115 43.2978 39.3986 43.2978 28.991L42.9646 25.926C40.6795 26.6264 38.4552 27.7482 36.6144 29.2639C36.0347 29.7408 35.3039 29.8311 34.6781 29.6184L35.2006 33.418C35.2006 41.6443 40.1777 46.3971 42.3174 48.0586C45.2888 50.3658 49.301 50.7371 52.6103 49.1373C51.8377 48.7258 51.0984 48.1855 50.4146 47.5139Z" fill="#FFBA87"/>
<path d="M76.5707 13.5174C73.8017 15.1541 70.2037 18.3529 70.8414 23.7373C72.3388 36.3824 62.3779 45.3662 72.0132 48.6705C81.6486 51.9748 87.5732 55.0625 89.8193 61.2008C90.7734 63.808 92.6435 64.6912 94.4795 64.8445C95.5896 60.8012 96.1847 56.5445 96.1847 52.1486C96.1845 36.283 88.4609 22.2232 76.5707 13.5174ZM20.0961 13.5174C22.865 15.1541 26.463 18.3529 25.8254 23.7373C24.3279 36.3824 34.2888 45.3662 24.6535 48.6705C15.0179 51.9748 9.09352 55.0625 6.84742 61.2008C5.89332 63.808 4.02321 64.6912 2.18727 64.8445C1.07711 60.8012 0.481995 56.5445 0.481995 52.1486C0.48219 36.283 8.20582 22.2232 20.0961 13.5174Z" fill="#2A428C"/>
<path d="M50.284 2.27559C50.467 1.08203 49.5467 0 48.3334 0C47.1215 0 46.1994 1.08008 46.3828 2.27559C46.6275 2.27363 50.1068 2.27422 50.284 2.27559Z" fill="#E9EFFF"/>
<path d="M48.9252 0.0921875C48.7338 0.0315192 48.5342 0.000431843 48.3334 0C47.1215 0 46.1994 1.08008 46.3828 2.27559C46.5238 2.27441 47.7394 2.27422 48.7781 2.27441C48.0012 1.78262 48.015 0.451758 48.9252 0.0921875Z" fill="#BEC8F7"/>
<path d="M38.589 8.88868C40.3316 4.80723 43.2261 2.31348 46.3842 2.14395H46.2345C41.9142 2.14395 37.8812 4.31661 35.5127 7.9295C34.4347 9.57364 32.6537 14.9496 32.6537 21.009V23.7086L32.7666 23.7732C33.1377 23.5621 34.4162 22.8717 36.4457 22.149C36.6648 16.0274 37.7976 10.7424 38.589 8.88868Z" fill="#E80054"/>
<path d="M61.1539 7.92968C58.7851 4.31659 54.7521 2.14413 50.432 2.14413H50.2824C53.4402 2.31367 56.335 4.80742 58.0775 8.88886C58.8691 10.7428 60.0019 16.0277 60.2211 22.1494C62.2506 22.8721 63.5291 23.5627 63.9002 23.7736L64.0131 23.709V21.0094C64.0131 14.9498 62.2318 9.57382 61.1539 7.92968Z" fill="#FF4155"/>
<path d="M48.3333 20.1473C53.4443 20.1473 57.5576 21.1939 60.2869 22.1727C60.064 15.9205 58.8816 10.606 58.1374 8.86328C56.5224 5.08066 53.8956 2.64257 51.0036 2.15839C50.8132 2.14943 50.6226 2.14468 50.432 2.14413H46.2347C46.0435 2.14413 45.8531 2.14999 45.663 2.15839C42.771 2.64257 40.1443 5.08066 38.5292 8.86328C37.7851 10.6062 36.6029 15.9207 36.3798 22.1727C39.1091 21.1939 43.2224 20.1473 48.3333 20.1473Z" fill="#E80054"/>
<path d="M43.0597 19.9971C42.3824 19.4244 42.373 18.4316 42.373 18.4316C42.373 6.73359 45.6919 3.20937 46.7771 2.36972C46.8562 2.30847 46.9219 2.2317 46.9703 2.14413H46.2345C46.0433 2.14413 45.8529 2.14999 45.6628 2.15839C42.7708 2.64257 40.1441 5.08066 38.5291 8.86328C37.7849 10.6062 36.6025 15.9207 36.3796 22.1727C38.1439 21.54 40.4894 20.8809 43.3056 20.4924C43.3003 20.3975 43.2757 20.3046 43.2335 20.2195C43.1912 20.1344 43.1321 20.0587 43.0597 19.9971Z" fill="#CC0053"/>
<path d="M49.5507 6.70449V2.14413H47.116V6.70449C47.1217 7.02358 47.2525 7.32767 47.4801 7.55131C47.7078 7.77495 48.0142 7.90026 48.3333 7.90026C48.6525 7.90026 48.9589 7.77495 49.1866 7.55131C49.4142 7.32767 49.545 7.02358 49.5507 6.70449ZM48.3333 21.2344C48.0105 21.2344 47.7008 21.1061 47.4725 20.8778C47.2442 20.6495 47.116 20.3399 47.116 20.017V16.8463C47.116 16.5234 47.2442 16.2138 47.4725 15.9855C47.7008 15.7572 48.0105 15.6289 48.3333 15.6289C48.6562 15.6289 48.9659 15.7572 49.1942 15.9855C49.4225 16.2138 49.5507 16.5234 49.5507 16.8463V20.017C49.5507 20.3399 49.4225 20.6495 49.1942 20.8778C48.9659 21.1061 48.6562 21.2344 48.3333 21.2344Z" fill="#FF4155"/>
<path d="M48.3334 20.017C38.7345 20.017 32.6537 23.7088 32.6537 23.7088C32.6537 25.6057 32.8677 27.1106 33.1541 28.2748C33.5494 29.8824 35.4912 30.5041 36.7693 29.452C42.015 25.133 48.3334 25.316 48.3334 25.316C48.3334 25.316 54.6517 25.1332 59.8974 29.452C61.1756 30.5041 63.1174 29.8824 63.5127 28.2748C63.799 27.1106 64.0131 25.6059 64.0131 23.7088C64.0131 23.709 57.9322 20.017 48.3334 20.017Z" fill="#E9EFFF"/>
<path d="M43.0564 25.8021C41.5474 24.0045 42.5259 21.9471 43.1904 20.9379C43.2454 20.854 43.2823 20.7595 43.2987 20.6605C43.3151 20.5616 43.3107 20.4603 43.2857 20.3631C36.6537 21.2811 32.6539 23.7088 32.6539 23.7088C32.6539 25.6057 32.8677 27.1105 33.1541 28.2748C33.5494 29.8824 35.4912 30.5041 36.7693 29.452C38.9045 27.6939 41.2172 26.6822 43.2093 26.1C43.1815 25.9904 43.1292 25.8886 43.0564 25.8021Z" fill="#D3DCFB"/>
<path d="M50.7795 9.10938C50.499 8.40821 50.5726 7.83165 50.6838 7.47129C50.7119 7.38008 50.7437 7.29766 50.7762 7.22501C50.7956 7.18125 50.8062 7.13408 50.8074 7.08622C50.8085 7.03836 50.8002 6.99073 50.783 6.94608C50.7657 6.90143 50.7398 6.86062 50.7067 6.826C50.6736 6.79138 50.634 6.76363 50.5902 6.74434C49.8797 6.42843 49.1107 6.26566 48.3332 6.26661C47.5557 6.26558 46.7867 6.42836 46.0764 6.74434C46.0325 6.76365 45.993 6.79142 45.9599 6.82604C45.9269 6.86066 45.901 6.90146 45.8837 6.94611C45.8664 6.99076 45.8581 7.03837 45.8593 7.08623C45.8604 7.13408 45.871 7.18124 45.8904 7.22501C45.9228 7.29766 45.9547 7.38008 45.9828 7.47129C46.1842 8.12403 46.0418 8.72227 45.8869 9.10938C45.3926 10.3453 43.7056 13.165 44.2953 15.6438C45.3084 16.7145 46.7428 17.3826 48.3332 17.3826C49.9236 17.3826 51.358 16.7145 52.3711 15.6436C52.9609 13.1658 51.275 10.3479 50.7795 9.10938Z" fill="#E9EFFF"/>
<path d="M52.3713 15.6436C52.7721 13.9598 52.1221 12.1197 51.5088 10.7242C51.3746 10.7336 51.2472 10.7869 51.1463 10.8758C48.6209 13.1426 46.2252 11.4875 45.4793 10.8547C45.3888 10.779 45.2785 10.7308 45.1615 10.7158C44.5474 12.1119 43.8941 13.9564 44.2955 15.6434C45.3086 16.7141 46.743 17.3822 48.3334 17.3822C49.9238 17.3826 51.3582 16.7145 52.3713 15.6436Z" fill="#D3DCFB"/>
<path d="M53.8914 11.8246C53.8914 9.82149 52.8314 8.06602 51.2421 7.08809C51.1975 7.06065 51.1474 7.04319 51.0954 7.03692C51.0434 7.03066 50.9906 7.03572 50.9408 7.05177C50.8909 7.06782 50.8451 7.09448 50.8065 7.12991C50.7679 7.16534 50.7374 7.20871 50.7171 7.25703C50.5507 7.65664 50.4152 8.31035 50.741 9.125C51.2425 10.3789 52.9492 13.2244 52.3144 15.7027C53.29 14.7012 53.8914 13.3332 53.8914 11.8246Z" fill="#BEC8F7"/>
<path d="M52.3144 15.7025C53.29 14.7012 53.8914 13.3332 53.8914 11.8246C53.8914 11.0355 53.7248 10.2859 53.4283 9.60605C53.0275 10.8445 52.1588 10.8377 51.6984 10.7342C51.6219 10.7183 51.5432 10.7169 51.4662 10.7299C52.0877 12.1416 52.7484 14.0078 52.3144 15.7025Z" fill="#A6B7F4"/>
<path d="M45.4245 7.08808C43.8351 8.06621 42.7753 9.82148 42.7753 11.8246C42.7753 13.3332 43.3767 14.7012 44.3523 15.7025C43.7175 13.2242 45.4242 10.3785 45.9257 9.1248C46.2515 8.31015 46.116 7.65663 45.9495 7.25683C45.9293 7.2085 45.8988 7.16513 45.8602 7.1297C45.8216 7.09427 45.7758 7.06762 45.7259 7.05159C45.676 7.03555 45.6232 7.03051 45.5712 7.03681C45.5192 7.04311 45.4692 7.0606 45.4245 7.08808Z" fill="#BEC8F7"/>
<path d="M44.3523 15.7025C43.9173 14.0047 44.5814 12.1346 45.204 10.7219C45.1224 10.7036 45.0378 10.7036 44.9562 10.7217C43.9025 10.9699 43.4808 10.3152 43.3236 9.90605C43.2935 9.8316 43.2494 9.76363 43.1937 9.70586C42.9166 10.3778 42.7744 11.0977 42.7753 11.8246C42.7734 13.2738 43.3396 14.666 44.3523 15.7025Z" fill="#A6B7F4"/>
<path d="M79.1796 78.2557C78.9779 77.4223 78.6925 76.7844 78.3669 76.2969C77.5177 75.0254 75.5183 75.6994 75.5998 77.2262C75.8847 82.5742 73.5671 87.3436 73.5671 87.3436C73.6256 87.3433 73.6819 87.3659 73.724 87.4065C73.7661 87.4471 73.7907 87.5025 73.7925 87.5609C73.8402 89.0695 73.9236 90.7848 74.066 92.4982C76.4828 90.9523 78.7563 89.193 80.8593 87.2414C80.3001 83.884 79.6447 80.176 79.1796 78.2557Z" fill="#2E8BE6"/>
</svg>
