<svg width="100" height="100" viewBox="0 0 100 100" fill="none" xmlns="http://www.w3.org/2000/svg">
<path d="M34.8437 33.5937L33.9062 32.1875C33.2812 31.25 32.3437 30.625 31.25 30.4687C29.6875 30.1562 28.2812 31.5625 28.5937 33.125L29.6875 38.4375C30.1562 40.7812 31.875 42.5 34.0625 43.125L35.625 43.5937L34.8437 33.5937ZM64.375 43.5937L65.9375 43.125C68.125 42.5 69.8437 40.625 70.3125 38.4375L71.4062 33.125C71.7187 31.5625 70.3125 30.1562 68.75 30.4687C67.6562 30.625 66.7187 31.25 66.0937 32.1875L65.1562 33.5937L64.375 43.5937Z" fill="#F0B496"/>
<path d="M47.6563 91.7188C45.9375 90.3125 31.25 78.5937 27.5 73.4375C24.0625 68.5937 19.6875 62.8125 25.7813 55C30.1563 49.375 44.8438 47.9688 52.0313 47.9688C59.5313 47.9688 69.375 49.2187 73.9063 55C79.8438 62.8125 75.625 68.5938 72.3438 73.2813C68.75 78.5938 54.0625 90.4688 52.3438 91.7188L50 93.5938L47.6563 91.7188Z" fill="#1E648C"/>
<path d="M68.75 65.1563C65.3125 69.0625 50 79.6875 50 79.6875C50 79.6875 34.5312 69.2188 31.25 65.1563C27.8125 61.25 25.9375 59.0625 29.5312 55.3125C33.75 50.7813 63.9062 47.8125 70.625 55.3125C74.0625 59.0625 72.1875 61.0938 68.75 65.1563Z" fill="#00466E"/>
<path d="M97.3438 100V86.875C97.3438 79.8437 93.125 73.5938 86.7188 70.9375L67.8125 62.9687C65.1562 61.875 63.4375 59.2187 63.4375 56.4062V46.875H36.5625V56.4062C36.5625 59.2187 34.8438 61.875 32.1875 62.9687L13.2812 70.7812C6.875 73.4375 2.65625 79.8438 2.65625 86.7188V100H97.3438Z" fill="#F0B496"/>
<path d="M36.5625 55.1562C37.0313 55.7812 37.3437 56.4063 37.9687 56.875L41.5625 60.3125C43.125 62.0312 45.9375 62.9687 48.2812 62.9687H51.875C54.2188 62.9687 57.0312 62.0312 58.5938 60.3125L62.1875 56.875C62.6562 56.4063 63.125 55.7812 63.5938 55.1562V46.875H36.5625V55.1562Z" fill="#E6A082"/>
<path d="M51.7188 59.0625C54.0625 59.0625 56.875 58.125 58.4375 56.4062L62.0313 52.9688C63.9063 51.0938 65 48.5938 65.3125 45.9375L66.4063 35.9375C66.5625 33.9063 66.7188 31.875 66.7188 29.8438V19.6875C66.7188 11.25 59.8438 4.375 51.4063 4.375H48.5938C40.1563 4.375 33.2812 11.25 33.2812 19.6875V29.8438C33.2812 31.875 33.4375 33.9063 33.5938 35.9375L34.6875 45.9375C35 48.5938 36.0938 51.0938 37.9688 52.9688L41.5625 56.4062C43.125 58.125 45.9375 59.0625 48.2813 59.0625H51.7188Z" fill="#F0C8AA"/>
<path d="M65.1563 11.4062C64.2188 10.7812 62.9688 11.0937 62.3438 12.0312C63.4375 10.1562 63.2813 8.4375 62.5 7.03125C60.7813 5.15625 58.5938 3.75 56.0938 2.96875C55.9375 2.96875 55.7813 2.96875 55.7813 2.8125C54.375 2.34375 52.9688 2.1875 51.4063 2.1875H48.5938C40.1563 2.1875 33.2812 9.0625 33.2812 17.5V27.6563L33.5938 29.5312C35.3125 24.8438 35.9375 22.0312 35.9375 20.1562C36.0938 17.9688 37.5 16.25 39.375 15.4688C40.9375 14.8438 42.6562 14.6875 44.2188 15.3125L45.3125 15.625C48.5938 16.5625 51.4063 16.5625 54.5313 15.625L55.625 15.3125C57.1875 14.8438 58.9063 14.8438 60.4688 15.4688C62.5 16.25 63.75 18.125 63.9063 20.1562C63.9063 22.5 64.2188 24.5312 66.25 29.5312L66.5625 27.6563V17.5C66.5625 15.3125 66.0938 13.2812 65.3125 11.5625C65.4688 11.5625 65.3125 11.4062 65.1563 11.4062Z" fill="#E6A082"/>
<path d="M61.7187 11.25L62.5 10C66.0937 4.0625 56.7187 0 49.8437 0C44.375 0 39.2187 2.03125 35.1562 5.625C29.6875 10.625 31.0937 20.1562 31.875 30.625L33.4375 31.7187L34.375 27.9688C35 25.3125 35.4687 22.5 35.7812 19.8438L35.9375 18.5938C36.0937 16.4062 37.5 14.6875 39.375 13.9062C40.9375 13.2812 42.6562 13.125 44.2187 13.75H45.3125C48.5937 14.6875 51.4062 14.6875 54.5312 13.75L55.625 13.4375C57.1875 12.9688 58.9062 12.9688 60.4687 13.5938C62.5 14.375 63.75 16.25 63.9062 18.2812L64.0625 19.5312C64.2187 22.3438 64.6875 25 65.4687 27.6563L66.4062 31.4062L67.9687 30.3125C68.75 21.0938 70.3125 12.6562 65.1562 9.375C64.2187 8.75 62.9687 9.0625 62.3437 10L61.7187 11.25Z" fill="#6B4C38"/>
<path d="M97.3438 86.875C97.3438 79.8437 93.125 73.5937 86.7188 70.9375L69.8438 63.9062C69.5312 64.375 69.0625 64.6875 68.75 65.1562C65.3125 69.0625 50 79.6875 50 79.6875C50 79.6875 34.5312 69.2187 31.25 65.1562C30.7812 64.6875 30.4687 64.2187 30.1562 63.9062L13.2812 70.7812C6.875 73.4375 2.65625 79.8437 2.65625 86.7187V100H97.3438V86.875Z" fill="#1E648C"/>
<path d="M73.5938 65.4688C72.9688 66.4063 72.5 67.3437 71.875 68.125C68.125 73.75 53.75 86.5625 52.1875 88.125L50 90.3125L47.6563 88.2812C46.0938 86.875 31.7188 74.0625 28.125 68.4375L26.25 65.625C26.875 66.4062 27.5 67.1875 28.125 67.8125C31.7188 72.0312 46.0938 81.875 47.6563 82.9687L50 84.5312L52.3438 82.9687C53.9063 81.875 68.2812 72.0312 72.0312 67.6562C72.5 67.0312 73.125 66.25 73.5938 65.4688Z" fill="#00466E"/>
</svg>
